<svg xmlns="http://www.w3.org/2000/svg" version="1.1" xmlns:xlink="http://www.w3.org/1999/xlink" xmlns:svgjs="http://svgjs.dev/svgjs" width="1440" height="900" preserveAspectRatio="none" viewBox="0 0 1440 900"><g mask="url(&quot;#SvgjsMask1268&quot;)" fill="none"><rect width="1440" height="900" x="0" y="0" fill="rgba(22, 21, 21, 1)"></rect><path d="M64.65 -80.14L146.06 -33.14L146.06 60.86L64.65 107.86L-16.76 60.86L-16.76 -33.14zM308.88 60.86L390.28 107.86L390.28 201.86L308.88 248.86L227.47 201.86L227.47 107.86zM227.47 765.86L308.88 812.86L308.88 906.86L227.47 953.86L146.06 906.86L146.06 812.86zM471.69 342.86L553.1 389.86L553.1 483.86L471.69 530.86L390.28 483.86L390.28 389.86zM390.28 483.86L471.69 530.86L471.69 624.86L390.28 671.86L308.88 624.86L308.88 530.86zM471.69 624.86L553.1 671.86L553.1 765.86L471.69 812.86L390.28 765.86L390.28 671.86zM390.28 765.86L471.69 812.86L471.69 906.86L390.28 953.86L308.88 906.86L308.88 812.86zM634.51 60.86L715.92 107.86L715.92 201.86L634.51 248.86L553.1 201.86L553.1 107.86zM553.1 201.86L634.51 248.86L634.51 342.86L553.1 389.86L471.69 342.86L471.69 248.86zM553.1 765.86L634.51 812.86L634.51 906.86L553.1 953.86L471.69 906.86L471.69 812.86zM715.92 201.86L797.33 248.86L797.33 342.86L715.92 389.86L634.51 342.86L634.51 248.86zM797.33 342.86L878.74 389.86L878.74 483.86L797.33 530.86L715.92 483.86L715.92 389.86zM878.74 -80.14L960.15 -33.14L960.15 60.86L878.74 107.86L797.33 60.86L797.33 -33.14zM960.15 60.86L1041.55 107.86L1041.55 201.86L960.15 248.86L878.74 201.86L878.74 107.86zM878.74 483.86L960.15 530.86L960.15 624.86L878.74 671.86L797.33 624.86L797.33 530.86zM1041.55 -80.14L1122.96 -33.14L1122.96 60.86L1041.55 107.86L960.15 60.86L960.15 -33.14zM1122.96 342.86L1204.37 389.86L1204.37 483.86L1122.96 530.86L1041.55 483.86L1041.55 389.86zM1285.78 60.86L1367.19 107.86L1367.19 201.86L1285.78 248.86L1204.37 201.86L1204.37 107.86zM1285.78 624.86L1367.19 671.86L1367.19 765.86L1285.78 812.86L1204.37 765.86L1204.37 671.86zM1367.19 -80.14L1448.6 -33.14L1448.6 60.86L1367.19 107.86L1285.78 60.86L1285.78 -33.14zM1448.6 624.86L1530.01 671.86L1530.01 765.86L1448.6 812.86L1367.19 765.86L1367.19 671.86z" stroke="rgba(135, 0, 0, 1)" stroke-width="2"></path></g><defs><mask id="SvgjsMask1268"><rect width="1440" height="900" fill="#ffffff"></rect></mask></defs></svg>